# xmcd
#
# Track frame offsets:
# 150
# 21382
# 40410
# 87650
# 96825
# 147850
# 161170
# 174282
# 206952
# 219875
# 238077
# 277712
#
# Disc length: 4352 seconds
#
#
# Revision: 0
# Processed by: cddbd v1.5.2PL0 Copyright (c) Steve Scherf et al.
# Submitted via: FreeRIP 2.945 
#
DISCID=aa10fe0c
DTITLE=sala do professor - buchanan's - Sala do Professor - BUCHANAN'S
DYEAR=2005
DGENRE=R&B
TTITLE0=Air Mail Special - Lionel Hamptom and His  Orchestra
TTITLE1=Blue Moon - Chet Baker/Heartbreak
TTITLE2=Blue Bossa - Geroge Benson Quartet
TTITLE3=Ain't No Sunshine - Al Jarreau
TTITLE4=Blue Monk - Thelonious Monk
TTITLE5=My Heart Belongs to Daddy - Count Basie and His Orchestra - guest appearance Ella Fitzgerald
TTITLE6=On Broadway - The Difters
TTITLE7=Diminuendo an Crescendo in Blue - Duke Ellington
TTITLE8=Angel Eyes - Ella Fitzgerald
TTITLE9=Cole's Bop Blues - Nat King Cole
TTITLE10=Jazz Walk - McCoy Tyner Trio
TTITLE11=So What - Miles Davis
EXTD=
EXTT0=
EXTT1=
EXTT2=
EXTT3=
EXTT4=
EXTT5=
EXTT6=
EXTT7=
EXTT8=
EXTT9=
EXTT10=
EXTT11=
PLAYORDER=
